# xmcd
#
# Track frame offsets: 
#        150
#        17700
#        47730
#        71325
#
# Disc length: 1275 seconds
#
# Revision: 2
# Processed by: cddbd v1.5.2PL0 Copyright (c) Steve Scherf et al.
# Submitted via: ExactAudioCopy v1.0b6
#
DISCID=2b04f904
DTITLE=Yazz - One True Woman (EU CD)
DYEAR=1992
DGENRE=House
TTITLE0=One True Woman
TTITLE1=One True Woman (True 2 U Mix)
TTITLE2=One True Woman (True Underground Mix)
TTITLE3=Changing Times
EXTD=
EXTT0=
EXTT1=
EXTT2=
EXTT3=
PLAYORDER=
